<svg width="1670" height="771" viewBox="0 0 1670 771" fill="none" xmlns="http://www.w3.org/2000/svg">
<path d="M984.991 211.426L983.545 222.389C983.509 222.652 983.393 222.898 983.212 223.094C983.032 223.289 982.796 223.425 982.536 223.482C982.276 223.539 982.005 223.516 981.759 223.415C981.513 223.314 981.304 223.14 981.16 222.916L975.226 213.585C975.123 213.425 974.986 213.288 974.825 213.186C974.664 213.083 974.483 213.017 974.294 212.991L963.331 211.545C963.067 211.509 962.821 211.392 962.626 211.212C962.43 211.031 962.295 210.796 962.237 210.536C962.18 210.276 962.203 210.005 962.305 209.759C962.406 209.513 962.58 209.304 962.803 209.16L972.134 203.226C972.295 203.123 972.431 202.986 972.534 202.825C972.636 202.664 972.703 202.483 972.729 202.293L974.174 191.33C974.211 191.067 974.327 190.821 974.508 190.626C974.688 190.43 974.924 190.295 975.184 190.237C975.443 190.18 975.714 190.203 975.96 190.304C976.207 190.405 976.416 190.579 976.56 190.803L982.494 200.134C982.597 200.294 982.734 200.431 982.895 200.533C983.056 200.636 983.237 200.703 983.426 200.728L994.389 202.174C994.652 202.21 994.898 202.327 995.094 202.507C995.289 202.688 995.425 202.924 995.482 203.183C995.54 203.443 995.516 203.714 995.415 203.96C995.314 204.206 995.14 204.415 994.917 204.56L985.586 210.493C985.425 210.597 985.289 210.733 985.186 210.894C985.083 211.055 985.017 211.237 984.991 211.426Z" fill="#FFC27A"/>
<path d="M66.5047 130.68L63.8047 138.006C63.7248 138.222 63.5809 138.407 63.3923 138.538C63.2038 138.669 62.9797 138.74 62.75 138.74C62.5204 138.74 62.2962 138.669 62.1077 138.538C61.9191 138.407 61.7752 138.222 61.6953 138.006L58.9953 130.68C58.9383 130.525 58.8485 130.385 58.7319 130.268C58.6154 130.151 58.475 130.062 58.3203 130.005L50.9938 127.305C50.7785 127.225 50.5928 127.081 50.4616 126.892C50.3305 126.704 50.2602 126.48 50.2602 126.25C50.2602 126.02 50.3305 125.796 50.4616 125.608C50.5928 125.419 50.7785 125.275 50.9938 125.195L58.3203 122.495C58.475 122.438 58.6154 122.348 58.7319 122.232C58.8485 122.115 58.9383 121.975 58.9953 121.82L61.6953 114.494C61.7752 114.278 61.9191 114.093 62.1077 113.962C62.2962 113.83 62.5204 113.76 62.75 113.76C62.9797 113.76 63.2038 113.83 63.3923 113.962C63.5809 114.093 63.7248 114.278 63.8047 114.494L66.5047 121.82C66.5617 121.975 66.6515 122.115 66.7681 122.232C66.8846 122.348 67.025 122.438 67.1797 122.495L74.5063 125.195C74.7216 125.275 74.9072 125.419 75.0384 125.608C75.1695 125.796 75.2398 126.02 75.2398 126.25C75.2398 126.48 75.1695 126.704 75.0384 126.892C74.9072 127.081 74.7216 127.225 74.5063 127.305L67.1797 130.005C67.025 130.062 66.8846 130.151 66.7681 130.268C66.6515 130.385 66.5617 130.525 66.5047 130.68Z" fill="#1A906B"/>
<path d="M71.75 108.25V115" stroke="#1A906B" stroke-width="2.25" stroke-linecap="round" stroke-linejoin="round"/>
<path d="M75.125 111.625H68.375" stroke="#1A906B" stroke-width="2.25" stroke-linecap="round" stroke-linejoin="round"/>
<path d="M78.5 116.125V120.625" stroke="#1A906B" stroke-width="2.25" stroke-linecap="round" stroke-linejoin="round"/>
<path d="M80.75 118.375H76.25" stroke="#1A906B" stroke-width="2.25" stroke-linecap="round" stroke-linejoin="round"/>
<circle cx="5" cy="503" r="5" fill="#ED4459"/>
<circle cx="725" cy="212" r="6" fill="#6D39E9"/>
<circle cx="1229.5" cy="695.022" r="7.5" fill="#6D39E9"/>
<circle cx="1468.5" cy="77.5" r="7.5" fill="#FFC27A"/>
<path d="M59 770H260" stroke="#2097F7" stroke-width="2" stroke-linecap="round" stroke-dasharray="5 8"/>
<path d="M1468 1H1669" stroke="#2097F7" stroke-width="2" stroke-linecap="round" stroke-dasharray="5 8"/>
</svg>
