<svg width="100" height="100" viewBox="0 0 100 100" fill="none" xmlns="http://www.w3.org/2000/svg">
<path d="M3 100C1.34314 100 0 98.6569 0 97V60.1429C0 58.486 1.34315 57.1429 3 57.1429H11.2857C12.9426 57.1429 14.2857 58.486 14.2857 60.1429V82.7143C14.2857 84.3711 15.6289 85.7143 17.2857 85.7143H39.8571C41.514 85.7143 42.8571 87.0574 42.8571 88.7143V97C42.8571 98.6569 41.514 100 39.8571 100H3ZM88.7143 42.8571C87.0574 42.8571 85.7143 41.514 85.7143 39.8571V17.2857C85.7143 15.6289 84.3711 14.2857 82.7143 14.2857H60.1429C58.486 14.2857 57.1429 12.9426 57.1429 11.2857V3C57.1429 1.34315 58.486 0 60.1429 0H97C98.6569 0 100 1.34315 100 3V39.8571C100 41.514 98.6569 42.8571 97 42.8571H88.7143Z" fill="black"/>
</svg>
