<svg width="20" height="21" viewBox="0 0 20 21" fill="none" xmlns="http://www.w3.org/2000/svg">
<circle cx="10" cy="10.5" r="10" fill="#FF9D00"/>
<path d="M10.0013 14.5C9.84 14.5 9.70433 14.4487 9.59433 14.346C9.49167 14.236 9.44033 14.1003 9.44033 13.939V9.044C9.44033 8.87533 9.49167 8.73967 9.59433 8.637C9.70433 8.53433 9.84 8.483 10.0013 8.483C10.17 8.483 10.3057 8.53433 10.4083 8.637C10.511 8.73967 10.5623 8.87533 10.5623 9.044V13.939C10.5623 14.1003 10.511 14.236 10.4083 14.346C10.3057 14.4487 10.17 14.5 10.0013 14.5ZM10.0013 7.504C9.80333 7.504 9.631 7.43433 9.48433 7.295C9.345 7.14833 9.27533 6.976 9.27533 6.778C9.27533 6.58 9.345 6.41133 9.48433 6.272C9.631 6.12533 9.80333 6.052 10.0013 6.052C10.1993 6.052 10.368 6.12533 10.5073 6.272C10.654 6.41133 10.7273 6.58 10.7273 6.778C10.7273 6.976 10.654 7.14833 10.5073 7.295C10.368 7.43433 10.1993 7.504 10.0013 7.504Z" fill="white"/>
</svg>
